<?xml version="1.0" encoding="UTF-8" standalone="no"?>
<!DOCTYPE svg PUBLIC "-//W3C//DTD SVG 1.1//EN" "http://www.w3.org/Graphics/SVG/1.1/DTD/svg11.dtd">
<!-- Created with Vectornator (http://vectornator.io/) -->
<svg height="100%" stroke-miterlimit="10" style="fill-rule:nonzero;clip-rule:evenodd;stroke-linecap:round;stroke-linejoin:round;" version="1.1" viewBox="0 0 13 13" width="100%" xml:space="preserve" xmlns="http://www.w3.org/2000/svg" xmlns:vectornator="http://vectornator.io" xmlns:xlink="http://www.w3.org/1999/xlink">
<defs/>
<g id="LightThemes" vectornator:layerName="LightThemes">
<path d="M3.02 2.73452C3.02 1.63298 4.57808 0.74 6.50008 0.74C8.42207 0.74 9.98015 1.63298 9.98015 2.73452C9.98015 3.83606 8.42207 4.72904 6.50008 4.72904C4.57808 4.72904 3.02 3.83606 3.02 2.73452Z" fill="none" opacity="1" stroke="#6b6b6b" stroke-linecap="butt" stroke-linejoin="miter" stroke-width="1.45"/>
<path d="M4.78724 2.73745C4.78724 2.39539 5.0591 2.11809 5.39445 2.11809C5.7298 2.11809 6.00166 2.39539 6.00166 2.73745C6.00166 3.07951 5.7298 3.3568 5.39445 3.3568C5.0591 3.3568 4.78724 3.07951 4.78724 2.73745Z" fill="#6b6b6b" fill-rule="nonzero" opacity="1" stroke="none"/>
<path d="M7.00101 2.73745C7.00101 2.39539 7.27287 2.11809 7.60822 2.11809C7.94357 2.11809 8.21543 2.39539 8.21543 2.73745C8.21543 3.07951 7.94357 3.3568 7.60822 3.3568C7.27287 3.3568 7.00101 3.07951 7.00101 2.73745Z" fill="#6b6b6b" fill-rule="nonzero" opacity="1" stroke="none"/>
<path d="M9.98015 10.2732C9.98015 11.3738 8.42282 12.2678 6.50008 12.2678C4.57733 12.2678 3.02 11.3738 3.02 10.2732" fill="none" opacity="1" stroke="#6b6b6b" stroke-linecap="butt" stroke-linejoin="miter" stroke-width="1.45"/>
<path d="M3.02 10.2732L3.02 2.51266" fill="none" opacity="1" stroke="#6b6b6b" stroke-linecap="butt" stroke-linejoin="miter" stroke-width="1.45"/>
<path d="M9.98015 2.51266L9.98015 10.2732" fill="none" opacity="1" stroke="#6b6b6b" stroke-linecap="butt" stroke-linejoin="miter" stroke-width="1.45"/>
<path d="M9.98015 8.4984L3.02 8.4984" fill="none" opacity="1" stroke="#6b6b6b" stroke-linecap="butt" stroke-linejoin="miter" stroke-width="1.45"/>
</g>
</svg>
