<?xml version="1.0" encoding="UTF-8" standalone="no"?>
<!DOCTYPE svg PUBLIC "-//W3C//DTD SVG 1.1//EN" "http://www.w3.org/Graphics/SVG/1.1/DTD/svg11.dtd">
<!-- Created with Vectornator (http://vectornator.io/) -->
<svg height="100%" stroke-miterlimit="10" style="fill-rule:nonzero;clip-rule:evenodd;stroke-linecap:round;stroke-linejoin:round;" version="1.1" viewBox="0 0 13 13" width="100%" xml:space="preserve" xmlns="http://www.w3.org/2000/svg" xmlns:vectornator="http://vectornator.io" xmlns:xlink="http://www.w3.org/1999/xlink">
<defs/>
<g id="Light" vectornator:layerName="Light">
<path d="M3.01899 2.73643C3.01899 1.63488 4.57707 0.741907 6.49907 0.741907C8.42106 0.741907 9.97914 1.63488 9.97914 2.73643C9.97914 3.83797 8.42106 4.73094 6.49907 4.73094C4.57707 4.73094 3.01899 3.83797 3.01899 2.73643Z" fill="none" opacity="1" stroke="#afafaf" stroke-linecap="butt" stroke-linejoin="miter" stroke-width="1.45"/>
<path d="M4.78623 2.73935C4.78623 2.39729 5.05809 2.12 5.39344 2.12C5.72879 2.12 6.00065 2.39729 6.00065 2.73935C6.00065 3.08141 5.72879 3.35871 5.39344 3.35871C5.05809 3.35871 4.78623 3.08141 4.78623 2.73935Z" fill="#afafaf" fill-rule="nonzero" opacity="1" stroke="none"/>
<path d="M7 2.73935C7 2.39729 7.27186 2.12 7.60721 2.12C7.94256 2.12 8.21442 2.39729 8.21442 2.73935C8.21442 3.08141 7.94256 3.35871 7.60721 3.35871C7.27186 3.35871 7 3.08141 7 2.73935Z" fill="#afafaf" fill-rule="nonzero" opacity="1" stroke="none"/>
<path d="M9.97914 10.2751C9.97914 11.3757 8.42181 12.2697 6.49907 12.2697C4.57632 12.2697 3.01899 11.3757 3.01899 10.2751" fill="none" opacity="1" stroke="#afafaf" stroke-linecap="butt" stroke-linejoin="miter" stroke-width="1.45"/>
<path d="M3.01899 10.2751L3.01899 2.51457" fill="none" opacity="1" stroke="#afafaf" stroke-linecap="butt" stroke-linejoin="miter" stroke-width="1.45"/>
<path d="M9.97914 2.51457L9.97914 10.2751" fill="none" opacity="1" stroke="#afafaf" stroke-linecap="butt" stroke-linejoin="miter" stroke-width="1.45"/>
<path d="M9.97914 8.5003L3.01899 8.5003" fill="none" opacity="1" stroke="#afafaf" stroke-linecap="butt" stroke-linejoin="miter" stroke-width="1.45"/>
</g>
</svg>
